<?xml version="1.0" encoding="UTF-8"?>
<svg id="Layer_2" data-name="Layer 2" xmlns="http://www.w3.org/2000/svg" viewBox="0 0 707.81 910.36">
  <defs>
    <style>
      .cls-1 {
        fill: #f2f2f2;
      }

      .cls-2 {
        fill: #f7931e;
      }

      .cls-3 {
        fill: #ccc;
      }

      .cls-4 {
        fill: #282828;
      }

      .cls-4, .cls-5, .cls-6, .cls-7, .cls-8, .cls-9, .cls-10, .cls-11, .cls-12 {
        stroke: #000;
      }

      .cls-4, .cls-5, .cls-6, .cls-7, .cls-9, .cls-10, .cls-12 {
        stroke-width: 8px;
      }

      .cls-4, .cls-5, .cls-6, .cls-8, .cls-10, .cls-11, .cls-12 {
        stroke-miterlimit: 10;
      }

      .cls-5, .cls-8 {
        fill: #fff;
      }

      .cls-6, .cls-7 {
        fill: #fbb03b;
      }

      .cls-7, .cls-9 {
        stroke-linejoin: round;
      }

      .cls-8, .cls-11 {
        stroke-width: 7.84px;
      }

      .cls-9 {
        stroke-linecap: round;
      }

      .cls-9, .cls-10 {
        fill: none;
      }
    </style>
  </defs>
  <g id="Layer_1-2" data-name="Layer 1">
    <path class="cls-1" d="M180.05,178.52s7.17-60.73,76.53-92.76,323.4,23.99,323.4,23.99c0,0,55.33,10.06,55.13,68.76-.2,58.71-11.2,166.77,7.54,204.16,18.74,37.39,43.58,217.28,17.34,272.43s-83.17,199.86-378.36,160.91c-175.13-23.1-127.63-255.21-127.63-255.21l26.05-382.3Z"/>
    <path class="cls-6" d="M208.89,804.48s-4.2,30.45-2.62,35.7,33.07,66.15,49.87,66.15c18.37,0,124.42,1.57,137.55-17.32,13.12-18.9-30.97-68.25-30.97-68.25l-153.82-16.27Z"/>
    <path class="cls-6" d="M475.06,814.98s49.35,52.5,76.12,52.5,111.44-31.5,108.75-47.77c-2.7-16.27-81.45-55.12-81.45-55.12l-103.42,50.4Z"/>
    <path class="cls-2" d="M208.89,804.48s53.07,71.47,47.25,101.85c-22.85-11.25-49.87-66.15-49.87-66.15l2.62-35.7Z"/>
    <path class="cls-2" d="M492.47,792.93s50.46,44.75,58.72,74.55c-25.47,.06-76.12-52.5-76.12-52.5l17.41-22.05Z"/>
    <path class="cls-10" d="M208.89,804.48s-4.2,30.45-2.62,35.7,33.07,66.15,49.87,66.15c18.37,0,124.42,1.57,137.55-17.32,13.12-18.9-30.97-68.25-30.97-68.25l-153.82-16.27Z"/>
    <path class="cls-3" d="M192.53,341.62s45.92,176.46,39.31,290.23c-6.61,113.77,195.87,154.56,375.27,93.71-11.17,8.07-46.82,49.37-124.59,64.34-92.3,17.77-227.98,8.79-227.98,8.79l-100.54-110.21,38.53-346.86Z"/>
    <path class="cls-10" d="M475.06,814.98s49.35,52.5,76.12,52.5,111.44-31.5,108.75-47.77c-2.7-16.27-81.45-55.12-81.45-55.12l-103.42,50.4Z"/>
    <path class="cls-4" d="M649.19,343.56c19.55-155.75-6.98-204.03-43.25-241.7-36.28-37.67-129.75-57.21-129.75-57.21,0,0-26.51,1.4,32.09-40.46-117.75-2.11-124.74,13.53-174.4,32.09C142.05,107.96,124.93,223.8,139.05,341.62c4.47,37.33-26.63,76.98-46.92,112.54C15.98,587.65-16.31,654.35,17.17,685.04c33.49,30.7,99.06-48.83,99.06-48.83-2.79,205.09,192.53,226.02,319.5,198.12,253.63-55.75,249.73-203.7,246.94-242.76,65.58-8.38-43.25-170.22-33.48-248.01Zm-166.88,434.86c-199.94,20.98-249.31-25.92-270.29-66.65s11.11-97.5-11.1-288.62c-22.22-191.12-8.64-328.48,144.4-328.48s120.01,209.39,120.01,209.39l47.84,43.62s25.92-27.94,16.05-39.04c-9.88-11.11-34.57-185.58,33.31-185.58s38.26,133.29,76.52,292.51c38.27,159.21,43.2,341.87-156.74,362.85Z"/>
    <path class="cls-7" d="M607.11,337.65c0,.8-.12,1.62-.37,2.45-50.97,3.94-141.44-.76-179.21-3.04,.23-8.23,5.22-17.21,12.5-24.68l12.57-9.93c6.75-4.03,14.08-6.53,20.91-6.53,55.64,0,133.6,22.97,133.6,41.73Z"/>
    <g>
      <path class="cls-12" d="M410.93,251.84c-3.78,22.06-22.57,86.17-90.27,69.76-71.35-17.3-33.85-175.42,24.62-172.34,58.47,3.08,71.81,66.68,65.65,102.58Z"/>
      <path class="cls-5" d="M393.4,251.26c-6.86-8.58-21.15-4.57-26.87,4.57-5.54,8.86-5.94,23.73,2.57,28.3,20.72,11.13,35.05-19.43,24.3-32.87Z"/>
      <path class="cls-5" d="M397.06,214.39c0-13.44-1.67-37.16-28.82-38.88-27.16-1.72-30.76,12.97-32.3,17.72-3.43,10.58,9.72,39.54,25.15,43.5,15.44,3.95,35.97-8.91,35.97-22.34Z"/>
      <path class="cls-5" d="M333.55,224.25c-8.12,1.98-14.21,7.7-14.2,19.17,0,14.55,14.37,19.68,21.73,18.14s15.57-7.53,14.55-19.51c-1.03-11.98-11.72-20.33-22.07-17.8Z"/>
    </g>
    <g>
      <path class="cls-11" d="M634.91,237.23c-1.3,17.98-10.87,70.7-62.13,61.73-54.02-9.45-36.97-138.93,6.54-140.11,43.51-1.18,57.71,49.13,55.58,78.38Z"/>
      <path class="cls-8" d="M621.88,237.86c-5.66-6.47-15.98-2.36-19.59,5.36-3.5,7.47-2.79,19.45,3.83,22.59,16.1,7.66,24.64-17.82,15.76-27.95Z"/>
      <path class="cls-8" d="M622.1,207.98c-.91-10.8-3.75-29.78-23.98-29.46-20.23,.32-21.9,12.35-22.72,16.27-1.82,8.72,9.88,31.19,21.58,33.4s26.03-9.41,25.12-20.21Z"/>
      <path class="cls-8" d="M575.73,219.88c-5.88,2.1-10,7.08-9.22,16.3,.99,11.7,11.98,14.92,17.33,13.23,5.35-1.7,11.02-7.03,9.45-16.59-1.57-9.57-10.06-15.61-17.56-12.93Z"/>
    </g>
    <path class="cls-7" d="M606.93,341.22c-5.37,18.58-69.48,43.57-125.78,43.57-39.21,0-53.44-27.27-53.44-46.02,0-.2,0-.39,.01-.59,37.77,2.28,128.24,6.98,179.21,3.04Z"/>
    <path class="cls-2" d="M426.23,338.29s48.96,60.58,152.46,20.87c-62.67,34.75-118.11,20.73-118.11,20.73l-23.28-14.67-10.89-12.89-.18-14.03Z"/>
    <path class="cls-9" d="M606.93,341.22c-5.37,18.58-69.48,43.57-125.78,43.57-39.21,0-53.44-27.27-53.44-46.02,0-.2,0-.39,.01-.59,37.77,2.28,128.24,6.98,179.21,3.04Z"/>
  </g>
</svg>